<svg xmlns="http://www.w3.org/2000/svg" width="1200" height="630" viewBox="0 0 1200 630">

  <defs>
    <marker id="arrowhead" markerWidth="10" markerHeight="7" refX="9" refY="3.5" orient="auto">
      <polygon points="0 0, 10 3.5, 0 7" fill="#2563eb" />
    </marker>
    <filter id="dropshadow" x="-10%" y="-10%" width="120%" height="120%">
      <feDropShadow dx="2" dy="2" stdDeviation="3" flood-color="#00000033"/>
    </filter>
  </defs>
<rect width="1200" height="630" fill="#f0f4f8"/>

  <rect x="0" y="0" width="1200" height="52" fill="#0d1f2d" />
  <text x="24" y="34" font-size="20" font-weight="700" fill="#c9a84c" font-family="Inter,Helvetica,Arial,sans-serif">Church PTZ Camera Network Topology: PoE Switch and Managed Switch</text>
  <text x="1176" y="34" font-size="13" fill="#8899aa" text-anchor="end" font-family="Inter,Helvetica,Arial,sans-serif">WorshipMetrics.io</text>

  <line x1="600.0" y1="291.0" x2="600.0" y2="159.0" stroke="#2563eb" stroke-width="2"  marker-end="url(#arrowhead)" />
  <text x="600.0" y="217.0" text-anchor="middle" font-size="11" fill="#4b5563" font-family="Inter,Helvetica,Arial,sans-serif" transform="rotate(-90.0,600.0,217.0)">Cat6</text>

  <line x1="665.6" y1="314.5" x2="724.6" y2="273.7" stroke="#2563eb" stroke-width="2"  marker-end="url(#arrowhead)" />
  <text x="695.1" y="286.1" text-anchor="middle" font-size="11" fill="#4b5563" font-family="Inter,Helvetica,Arial,sans-serif" transform="rotate(-34.7,695.1,286.1)">Cat6</text>

  <line x1="640.6" y1="352.5" x2="677.0" y2="459.3" stroke="#2563eb" stroke-width="2"  marker-end="url(#arrowhead)" />
  <text x="658.8" y="397.9" text-anchor="middle" font-size="11" fill="#4b5563" font-family="Inter,Helvetica,Arial,sans-serif" transform="rotate(71.2,658.8,397.9)">Cat6</text>

  <line x1="559.4" y1="352.5" x2="523.0" y2="459.3" stroke="#2563eb" stroke-width="2"  marker-end="url(#arrowhead)" />
  <text x="541.2" y="397.9" text-anchor="middle" font-size="11" fill="#4b5563" font-family="Inter,Helvetica,Arial,sans-serif" transform="rotate(288.8,541.2,397.9)">Cat6</text>

  <line x1="534.4" y1="314.5" x2="475.4" y2="273.7" stroke="#2563eb" stroke-width="2"  marker-end="url(#arrowhead)" />
  <text x="504.9" y="286.1" text-anchor="middle" font-size="11" fill="#4b5563" font-family="Inter,Helvetica,Arial,sans-serif" transform="rotate(34.7,504.9,286.1)">Cat6</text>

  <rect x="535.0" y="295.0" width="130" height="60" rx="8" ry="8" fill="#1a3a5c" stroke="#c9a84c" stroke-width="2" filter="url(#dropshadow)" />
  
    <text x="600.0" y="329.5" text-anchor="middle" font-size="13" fill="#ffffff" font-weight="600" font-family="Inter,Helvetica,Arial,sans-serif">Managed Switch</text>

  <rect x="535.0" y="95.0" width="130" height="60" rx="8" ry="8" fill="#1a4a2e" stroke="#4a7fa5" stroke-width="2" filter="url(#dropshadow)" />
  
    <text x="600.0" y="129.5" text-anchor="middle" font-size="13" fill="#ffffff" font-weight="600" font-family="Inter,Helvetica,Arial,sans-serif">PTZ Camera 1</text>

  <rect x="725.2113032590307" y="233.19660112501055" width="130" height="60" rx="8" ry="8" fill="#1a4a2e" stroke="#4a7fa5" stroke-width="2" filter="url(#dropshadow)" />
  
    <text x="790.2" y="267.7" text-anchor="middle" font-size="13" fill="#ffffff" font-weight="600" font-family="Inter,Helvetica,Arial,sans-serif">PTZ Camera 2</text>

  <rect x="652.5570504584946" y="456.8033988749895" width="130" height="60" rx="8" ry="8" fill="#1a4a2e" stroke="#4a7fa5" stroke-width="2" filter="url(#dropshadow)" />
  
    <text x="717.6" y="491.3" text-anchor="middle" font-size="13" fill="#ffffff" font-weight="600" font-family="Inter,Helvetica,Arial,sans-serif">PTZ Camera 3</text>

  <rect x="417.4429495415054" y="456.8033988749895" width="130" height="60" rx="8" ry="8" fill="#3a2a1a" stroke="#4a7fa5" stroke-width="2" filter="url(#dropshadow)" />
  
    <text x="482.4" y="482.8" text-anchor="middle" font-size="13" fill="#ffffff" font-weight="600" font-family="Inter,Helvetica,Arial,sans-serif">Broadcast</text>
    <text x="482.4" y="499.8" text-anchor="middle" font-size="13" fill="#ffffff" font-weight="600" font-family="Inter,Helvetica,Arial,sans-serif">Computer</text>

  <rect x="344.78869674096927" y="233.19660112501055" width="130" height="60" rx="8" ry="8" fill="#1a3a5c" stroke="#4a7fa5" stroke-width="2" filter="url(#dropshadow)" />
  
    <text x="409.8" y="267.7" text-anchor="middle" font-size="13" fill="#ffffff" font-weight="600" font-family="Inter,Helvetica,Arial,sans-serif">Router</text>

  <rect x="0" y="602" width="1200" height="28" fill="#0d1f2d" opacity="0.6"/>
  <text x="600" y="620" text-anchor="middle" font-size="11" fill="#8899aa" font-family="Inter,Helvetica,Arial,sans-serif">© WorshipMetrics.io — Church AV Knowledge Base</text>
</svg>