<svg xmlns="http://www.w3.org/2000/svg" viewBox="0 0 1600 900"
     role="img" aria-labelledby="t d">

  <defs>
    <linearGradient id="bg" x1="0" y1="0" x2="1" y2="1">
      <stop offset="0%" stop-color="#0B0E14"/>
      <stop offset="70%" stop-color="#13181F"/>
      <stop offset="100%" stop-color="#3B82F6" stop-opacity="0.35"/>
    </linearGradient>
    <linearGradient id="accentBar" x1="0" y1="0" x2="1" y2="0">
      <stop offset="0%" stop-color="#3B82F6"/>
      <stop offset="100%" stop-color="#3B82F6" stop-opacity="0"/>
    </linearGradient>
    <linearGradient id="nodeGrad" x1="0" y1="0" x2="0" y2="1">
      <stop offset="0%" stop-color="#202a3d"/>
      <stop offset="100%" stop-color="#141a27"/>
    </linearGradient>
    <marker id="arrow_7aa0ff" viewBox="0 0 10 10" refX="9" refY="5" markerWidth="8" markerHeight="8" orient="auto-start-reverse"><path d="M0,0 L10,5 L0,10 z" fill="#7aa0ff"/></marker>
  </defs>
  <title id="t">PTZ Mounting for Church Sanctuaries</title>
  <desc id="d">Three-camera positioning with coverage overlap</desc>
  <rect width="1600" height="900" fill="url(#bg)"/>
  <g stroke="#1E2733" stroke-width="1" opacity="0.55">
    <line x1="0" y1="225" x2="1600" y2="225"/>
    <line x1="0" y1="450" x2="1600" y2="450"/>
    <line x1="0" y1="675" x2="1600" y2="675"/>
    <line x1="400" y1="0" x2="400" y2="900"/>
    <line x1="800" y1="0" x2="800" y2="900"/>
    <line x1="1200" y1="0" x2="1200" y2="900"/>
  </g>
  <rect x="0" y="0" width="1600" height="8" fill="url(#accentBar)"/>

  <text x="60" y="70" fill="#3B82F6" font-family="'IBM Plex Sans', 'Outfit', system-ui, sans-serif" font-size="20"
        font-weight="700" letter-spacing="4">WORSHIPMETRICS</text>
  <text x="60" y="135" fill="#f5f7fb" font-family="'IBM Plex Sans', 'Outfit', system-ui, sans-serif" font-size="52"
        font-weight="700">PTZ Mounting for Church Sanctuaries</text>
  <text x="60" y="175" fill="#94a3c4" font-family="'IBM Plex Sans', 'Outfit', system-ui, sans-serif" font-size="22"
        font-weight="400">Three-camera positioning with coverage overlap</text>
<rect x="220" y="280" width="1160" height="520" rx="28" ry="28" fill="#141a27" stroke="#1E2733" stroke-width="2"/>
<rect x="260" y="320" width="1080" height="120" rx="12" ry="12" fill="#1a2540" stroke="#4361ee" stroke-width="1.5"/>
<text x="800" y="395" fill="#94a3c4" font-family="'IBM Plex Mono', ui-monospace, monospace" font-size="22" text-anchor="middle" font-weight="700" letter-spacing="3">STAGE</text>
<rect x="300" y="500" width="1000" height="28" rx="6" ry="6" fill="#1e2733" opacity="0.9"/>
<rect x="300" y="560" width="1000" height="28" rx="6" ry="6" fill="#1e2733" opacity="0.78"/>
<rect x="300" y="620" width="1000" height="28" rx="6" ry="6" fill="#1e2733" opacity="0.66"/>
<rect x="300" y="680" width="1000" height="28" rx="6" ry="6" fill="#1e2733" opacity="0.54"/>
<rect x="300" y="740" width="1000" height="28" rx="6" ry="6" fill="#1e2733" opacity="0.42000000000000004"/>
<circle cx="420" cy="560" r="22" fill="#5b7cff" stroke="#fff" stroke-width="2"/>
<text x="420" y="567" fill="#0B0E14" font-family="'IBM Plex Sans', 'Outfit', system-ui, sans-serif" font-size="20" font-weight="800" text-anchor="middle">1</text>
<path d="M 420 560 L 609.3 289.7 A 330 330 0 0 1 738.8 645.4 Z" fill="#3B82F6" fill-opacity="0.18" stroke="#3B82F6" stroke-width="1.5" stroke-opacity="0.6"/>
<text x="420" y="526" fill="#f5f7fb" font-family="'IBM Plex Sans', 'Outfit', system-ui, sans-serif" font-size="17" text-anchor="middle" font-weight="600">Rear Wide FOH</text>
<circle cx="800" cy="780" r="22" fill="#5b7cff" stroke="#fff" stroke-width="2"/>
<text x="800" y="787" fill="#0B0E14" font-family="'IBM Plex Sans', 'Outfit', system-ui, sans-serif" font-size="20" font-weight="800" text-anchor="middle">2</text>
<path d="M 800 780 L 639.4 435.6 A 380 380 0 0 1 960.6 435.6 Z" fill="#3B82F6" fill-opacity="0.18" stroke="#3B82F6" stroke-width="1.5" stroke-opacity="0.6"/>
<text x="800" y="746" fill="#f5f7fb" font-family="'IBM Plex Sans', 'Outfit', system-ui, sans-serif" font-size="17" text-anchor="middle" font-weight="600">Center Pulpit</text>
<circle cx="1180" cy="560" r="22" fill="#5b7cff" stroke="#fff" stroke-width="2"/>
<text x="1180" y="567" fill="#0B0E14" font-family="'IBM Plex Sans', 'Outfit', system-ui, sans-serif" font-size="20" font-weight="800" text-anchor="middle">3</text>
<path d="M 1180 560 L 861.2 645.4 A 330 330 0 0 1 990.7 289.7 Z" fill="#3B82F6" fill-opacity="0.18" stroke="#3B82F6" stroke-width="1.5" stroke-opacity="0.6"/>
<text x="1180" y="526" fill="#f5f7fb" font-family="'IBM Plex Sans', 'Outfit', system-ui, sans-serif" font-size="17" text-anchor="middle" font-weight="600">Rear Wide FOH</text>


  <text x="60" y="860" fill="#94a3c4" font-family="'IBM Plex Sans', 'Outfit', system-ui, sans-serif"
        font-size="18">Rear-mount wides flanking a centered pulpit tight</text>
  <text x="1540" y="860" fill="#94a3c4" font-family="'IBM Plex Sans', 'Outfit', system-ui, sans-serif"
        font-size="18" text-anchor="end">worshipmetrics.com</text>
</svg>
