<svg xmlns="http://www.w3.org/2000/svg" width="1200" height="630" viewBox="0 0 1200 630">

  <defs>
    <marker id="arrowhead" markerWidth="10" markerHeight="7" refX="9" refY="3.5" orient="auto">
      <polygon points="0 0, 10 3.5, 0 7" fill="#2563eb" />
    </marker>
    <filter id="dropshadow" x="-10%" y="-10%" width="120%" height="120%">
      <feDropShadow dx="2" dy="2" stdDeviation="3" flood-color="#00000033"/>
    </filter>
  </defs>
<rect width="1200" height="630" fill="#f0f4f8"/>
<line x1="0" y1="52" x2="0" y2="602" stroke="#dde3ea" stroke-width="1"/>
<line x1="60" y1="52" x2="60" y2="602" stroke="#dde3ea" stroke-width="1"/>
<line x1="120" y1="52" x2="120" y2="602" stroke="#dde3ea" stroke-width="1"/>
<line x1="180" y1="52" x2="180" y2="602" stroke="#dde3ea" stroke-width="1"/>
<line x1="240" y1="52" x2="240" y2="602" stroke="#dde3ea" stroke-width="1"/>
<line x1="300" y1="52" x2="300" y2="602" stroke="#dde3ea" stroke-width="1"/>
<line x1="360" y1="52" x2="360" y2="602" stroke="#dde3ea" stroke-width="1"/>
<line x1="420" y1="52" x2="420" y2="602" stroke="#dde3ea" stroke-width="1"/>
<line x1="480" y1="52" x2="480" y2="602" stroke="#dde3ea" stroke-width="1"/>
<line x1="540" y1="52" x2="540" y2="602" stroke="#dde3ea" stroke-width="1"/>
<line x1="600" y1="52" x2="600" y2="602" stroke="#dde3ea" stroke-width="1"/>
<line x1="660" y1="52" x2="660" y2="602" stroke="#dde3ea" stroke-width="1"/>
<line x1="720" y1="52" x2="720" y2="602" stroke="#dde3ea" stroke-width="1"/>
<line x1="780" y1="52" x2="780" y2="602" stroke="#dde3ea" stroke-width="1"/>
<line x1="840" y1="52" x2="840" y2="602" stroke="#dde3ea" stroke-width="1"/>
<line x1="900" y1="52" x2="900" y2="602" stroke="#dde3ea" stroke-width="1"/>
<line x1="960" y1="52" x2="960" y2="602" stroke="#dde3ea" stroke-width="1"/>
<line x1="1020" y1="52" x2="1020" y2="602" stroke="#dde3ea" stroke-width="1"/>
<line x1="1080" y1="52" x2="1080" y2="602" stroke="#dde3ea" stroke-width="1"/>
<line x1="1140" y1="52" x2="1140" y2="602" stroke="#dde3ea" stroke-width="1"/>

  <rect x="0" y="0" width="1200" height="52" fill="#0d1f2d" />
  <text x="24" y="34" font-size="20" font-weight="700" fill="#c9a84c" font-family="Inter,Helvetica,Arial,sans-serif">AVKANS PTZ-U30: HDMI Signal Flow to ATEM Mini and OBS</text>
  <text x="1176" y="34" font-size="13" fill="#8899aa" text-anchor="end" font-family="Inter,Helvetica,Arial,sans-serif">WorshipMetrics.io</text>

  <rect x="60.0" y="289.0" width="160" height="72" rx="8" ry="8" fill="#0d1f2d" stroke="#c9a84c" stroke-width="2" filter="url(#dropshadow)" />
  
    <text x="140.0" y="329.5" text-anchor="middle" font-size="13" fill="#ffffff" font-weight="600" font-family="Inter,Helvetica,Arial,sans-serif">AVKANS PTZ-U30</text>

  <rect x="520.0" y="289.0" width="160" height="72" rx="8" ry="8" fill="#0d1f2d" stroke="#c9a84c" stroke-width="2" filter="url(#dropshadow)" />
  
    <text x="600.0" y="329.5" text-anchor="middle" font-size="13" fill="#ffffff" font-weight="600" font-family="Inter,Helvetica,Arial,sans-serif">ATEM Mini</text>

  <rect x="980.0" y="289.0" width="160" height="72" rx="8" ry="8" fill="#0d1f2d" stroke="#c9a84c" stroke-width="2" filter="url(#dropshadow)" />
  
    <text x="1060.0" y="329.5" text-anchor="middle" font-size="13" fill="#ffffff" font-weight="600" font-family="Inter,Helvetica,Arial,sans-serif">OBS Computer</text>

  <line x1="220.0" y1="325.0" x2="520.0" y2="325.0" stroke="#2563eb" stroke-width="2"  marker-end="url(#arrowhead)" />
  <text x="370.0" y="317.0" text-anchor="middle" font-size="11" fill="#4b5563" font-family="Inter,Helvetica,Arial,sans-serif" transform="rotate(0.0,370.0,317.0)">HDMI</text>

  <line x1="680.0" y1="325.0" x2="980.0" y2="325.0" stroke="#2563eb" stroke-width="2"  marker-end="url(#arrowhead)" />
  <text x="830.0" y="317.0" text-anchor="middle" font-size="11" fill="#4b5563" font-family="Inter,Helvetica,Arial,sans-serif" transform="rotate(0.0,830.0,317.0)">USB</text>

  <rect x="0" y="602" width="1200" height="28" fill="#0d1f2d" opacity="0.6"/>
  <text x="600" y="620" text-anchor="middle" font-size="11" fill="#8899aa" font-family="Inter,Helvetica,Arial,sans-serif">© WorshipMetrics.io — Church AV Knowledge Base</text>
</svg>