<svg xmlns="http://www.w3.org/2000/svg" width="1200" height="630" viewBox="0 0 1200 630">

  <defs>
    <marker id="arrowhead" markerWidth="10" markerHeight="7" refX="9" refY="3.5" orient="auto">
      <polygon points="0 0, 10 3.5, 0 7" fill="#2563eb" />
    </marker>
    <filter id="dropshadow" x="-10%" y="-10%" width="120%" height="120%">
      <feDropShadow dx="2" dy="2" stdDeviation="3" flood-color="#00000033"/>
    </filter>
  </defs>
<rect width="1200" height="630" fill="#f0f4f8"/>

  <rect x="0" y="0" width="1200" height="52" fill="#0d1f2d" />
  <text x="24" y="34" font-size="20" font-weight="700" fill="#c9a84c" font-family="Inter,Helvetica,Arial,sans-serif">ATEM Mini Audio Routing: Behringer X32 to Stream</text>
  <text x="1176" y="34" font-size="13" fill="#8899aa" text-anchor="end" font-family="Inter,Helvetica,Arial,sans-serif">WorshipMetrics.io</text>

  <line x1="197.7" y1="209.6" x2="522.6" y2="307.3" stroke="#2563eb" stroke-width="2"  marker-end="url(#arrowhead)" />
  <text x="360.2" y="250.5" text-anchor="middle" font-size="11" fill="#4b5563" font-family="Inter,Helvetica,Arial,sans-serif" transform="rotate(16.8,360.2,250.5)">XLR</text>

  <line x1="522.6" y1="342.7" x2="197.7" y2="440.4" stroke="#2563eb" stroke-width="2" stroke-dasharray="6,4" marker-end="url(#arrowhead)" />
  <text x="360.2" y="383.5" text-anchor="middle" font-size="11" fill="#4b5563" font-family="Inter,Helvetica,Arial,sans-serif" transform="rotate(343.2,360.2,383.5)">RCA</text>

  <line x1="199.4" y1="443.9" x2="1000.6" y2="328.6" stroke="#2563eb" stroke-width="2"  marker-end="url(#arrowhead)" />
  <text x="600.0" y="378.2" text-anchor="middle" font-size="11" fill="#4b5563" font-family="Inter,Helvetica,Arial,sans-serif" transform="rotate(-8.2,600.0,378.2)">USB</text>

  <rect x="520" y="255" width="160" height="140" rx="8" ry="8" fill="#1a2e42" stroke="#c9a84c" stroke-width="2" filter="url(#dropshadow)" />
  
    <text x="600.0" y="329.5" text-anchor="middle" font-size="13" fill="#ffffff" font-weight="600" font-family="Inter,Helvetica,Arial,sans-serif">Behringer X32</text>

  <rect x="60.0" y="174.5" width="140" height="56" rx="8" ry="8" fill="#1a3a2a" stroke="#4caf79" stroke-width="2" filter="url(#dropshadow)" />
  
    <text x="130.0" y="207.0" text-anchor="middle" font-size="13" fill="#ffffff" font-weight="600" font-family="Inter,Helvetica,Arial,sans-serif">Microphones</text>

  <rect x="60.0" y="419.5" width="140" height="56" rx="8" ry="8" fill="#1a3a2a" stroke="#4caf79" stroke-width="2" filter="url(#dropshadow)" />
  
    <text x="130.0" y="452.0" text-anchor="middle" font-size="13" fill="#ffffff" font-weight="600" font-family="Inter,Helvetica,Arial,sans-serif">ATEM Mini</text>

  <rect x="1000.0" y="297.0" width="140" height="56" rx="8" ry="8" fill="#2a1a3a" stroke="#9c6aba" stroke-width="2" filter="url(#dropshadow)" />
  
    <text x="1070.0" y="329.5" text-anchor="middle" font-size="13" fill="#ffffff" font-weight="600" font-family="Inter,Helvetica,Arial,sans-serif">OBS/YouTube</text>
<rect x="40" y="580" width="14" height="3" fill="#2563eb"/>
<text x="60" y="584" font-size="11" fill="#4b5563" font-family="Inter,Helvetica,Arial,sans-serif">Balanced (XLR / TRS)</text>
<line x1="220" y1="581" x2="234" y2="581" stroke="#2563eb" stroke-width="2" stroke-dasharray="4,3"/>
<text x="240" y="584" font-size="11" fill="#4b5563" font-family="Inter,Helvetica,Arial,sans-serif">Unbalanced / Line</text>

  <rect x="0" y="602" width="1200" height="28" fill="#0d1f2d" opacity="0.6"/>
  <text x="600" y="620" text-anchor="middle" font-size="11" fill="#8899aa" font-family="Inter,Helvetica,Arial,sans-serif">© WorshipMetrics.io — Church AV Knowledge Base</text>
</svg>