<svg xmlns="http://www.w3.org/2000/svg" viewBox="0 0 1600 900" role="img" aria-labelledby="t d">
  <title id="t">Hardware Encoder Comparison: Teradek, Vidiu and BoxCaster</title>
  <desc id="d">Comparison thumbnail for Teradek, Vidiu, and BoxCaster hardware encoders for church streaming.</desc>
  <defs>
    <linearGradient id="bg" x1="0" y1="0" x2="1" y2="1">
      <stop offset="0%" stop-color="#0B0E14"/>
      <stop offset="72%" stop-color="#141A23"/>
      <stop offset="100%" stop-color="#3B82F6" stop-opacity="0.32"/>
    </linearGradient>
    <linearGradient id="accent" x1="0" y1="0" x2="1" y2="0">
      <stop offset="0%" stop-color="#3B82F6"/>
      <stop offset="100%" stop-color="#3B82F6" stop-opacity="0"/>
    </linearGradient>
  </defs>
  <rect width="1600" height="900" fill="url(#bg)"/>
  <g stroke="#1E2733" stroke-width="1" opacity="0.55">
    <line x1="0" y1="225" x2="1600" y2="225"/>
    <line x1="0" y1="450" x2="1600" y2="450"/>
    <line x1="0" y1="675" x2="1600" y2="675"/>
    <line x1="400" y1="0" x2="400" y2="900"/>
    <line x1="800" y1="0" x2="800" y2="900"/>
    <line x1="1200" y1="0" x2="1200" y2="900"/>
  </g>
  <rect x="0" y="0" width="1600" height="8" fill="url(#accent)"/>

  <text x="70" y="70" fill="#3B82F6" font-family="'IBM Plex Sans', Arial, sans-serif" font-size="20" font-weight="700" letter-spacing="4">WORSHIPMETRICS</text>
  <text x="70" y="135" fill="#F5F7FB" font-family="'IBM Plex Sans', Arial, sans-serif" font-size="50" font-weight="700">Hardware Encoder Comparison</text>
  <text x="70" y="176" fill="#94A3B8" font-family="'IBM Plex Sans', Arial, sans-serif" font-size="22">Teradek, Vidiu and BoxCaster for church streaming</text>

  <g transform="translate(430 270)">
    <rect x="0" y="0" width="220" height="430" rx="20" fill="#121826" stroke="#35507A" stroke-width="2"/>
    <rect x="26" y="34" width="168" height="124" rx="18" fill="#1D2738" stroke="#3B82F6" stroke-width="2"/>
    <rect x="52" y="60" width="116" height="72" rx="12" fill="#0F1724" stroke="#6EA8FF"/>
    <circle cx="168" cy="96" r="12" fill="#34D399"/>
    <text x="110" y="210" fill="#F5F7FB" font-family="'IBM Plex Sans', Arial, sans-serif" font-size="28" font-weight="700" text-anchor="middle">Teradek</text>
    <text x="110" y="252" fill="#94A3B8" font-family="'IBM Plex Sans', Arial, sans-serif" font-size="20" text-anchor="middle">Advanced routing</text>
    <text x="110" y="292" fill="#34D399" font-family="'IBM Plex Sans', Arial, sans-serif" font-size="19" text-anchor="middle">Pro workflows</text>
    <text x="110" y="332" fill="#F59E0B" font-family="'IBM Plex Sans', Arial, sans-serif" font-size="19" text-anchor="middle">Higher cost</text>
    <rect x="36" y="366" width="148" height="16" rx="8" fill="#1F2937"/>
    <rect x="36" y="366" width="120" height="16" rx="8" fill="#3B82F6"/>
    <text x="110" y="412" fill="#CBD5E1" font-family="'IBM Plex Sans', Arial, sans-serif" font-size="18" text-anchor="middle">Feature depth</text>
  </g>

  <g transform="translate(690 270)">
    <rect x="0" y="0" width="220" height="430" rx="20" fill="#121826" stroke="#35507A" stroke-width="2"/>
    <rect x="38" y="34" width="144" height="124" rx="18" fill="#1D2738" stroke="#3B82F6" stroke-width="2"/>
    <rect x="66" y="56" width="88" height="82" rx="12" fill="#0F1724" stroke="#6EA8FF"/>
    <circle cx="146" cy="97" r="8" fill="#F87171"/>
    <text x="110" y="210" fill="#F5F7FB" font-family="'IBM Plex Sans', Arial, sans-serif" font-size="28" font-weight="700" text-anchor="middle">Vidiu</text>
    <text x="110" y="252" fill="#94A3B8" font-family="'IBM Plex Sans', Arial, sans-serif" font-size="20" text-anchor="middle">Simple deploy</text>
    <text x="110" y="292" fill="#34D399" font-family="'IBM Plex Sans', Arial, sans-serif" font-size="19" text-anchor="middle">Volunteer friendly</text>
    <text x="110" y="332" fill="#F5F7FB" font-family="'IBM Plex Sans', Arial, sans-serif" font-size="19" text-anchor="middle">Balanced control</text>
    <rect x="36" y="366" width="148" height="16" rx="8" fill="#1F2937"/>
    <rect x="36" y="366" width="98" height="16" rx="8" fill="#60A5FA"/>
    <text x="110" y="412" fill="#CBD5E1" font-family="'IBM Plex Sans', Arial, sans-serif" font-size="18" text-anchor="middle">Ease of use</text>
  </g>

  <g transform="translate(950 270)">
    <rect x="0" y="0" width="220" height="430" rx="20" fill="#121826" stroke="#35507A" stroke-width="2"/>
    <rect x="34" y="34" width="152" height="124" rx="18" fill="#1D2738" stroke="#3B82F6" stroke-width="2"/>
    <rect x="58" y="56" width="104" height="82" rx="12" fill="#0F1724" stroke="#6EA8FF"/>
    <path d="M80 114h60" stroke="#34D399" stroke-width="8" stroke-linecap="round"/>
    <text x="110" y="210" fill="#F5F7FB" font-family="'IBM Plex Sans', Arial, sans-serif" font-size="28" font-weight="700" text-anchor="middle">BoxCaster</text>
    <text x="110" y="252" fill="#94A3B8" font-family="'IBM Plex Sans', Arial, sans-serif" font-size="20" text-anchor="middle">Turnkey streaming</text>
    <text x="110" y="292" fill="#34D399" font-family="'IBM Plex Sans', Arial, sans-serif" font-size="19" text-anchor="middle">Fast onboarding</text>
    <text x="110" y="332" fill="#F59E0B" font-family="'IBM Plex Sans', Arial, sans-serif" font-size="19" text-anchor="middle">Ecosystem lock-in</text>
    <rect x="36" y="366" width="148" height="16" rx="8" fill="#1F2937"/>
    <rect x="36" y="366" width="88" height="16" rx="8" fill="#22C55E"/>
    <text x="110" y="412" fill="#CBD5E1" font-family="'IBM Plex Sans', Arial, sans-serif" font-size="18" text-anchor="middle">Setup speed</text>
  </g>

  <g transform="translate(1230 305)">
    <rect x="0" y="0" width="280" height="360" rx="22" fill="#0F1724" stroke="#233148"/>
    <text x="140" y="58" fill="#E2E8F0" font-family="'IBM Plex Sans', Arial, sans-serif" font-size="28" font-weight="700" text-anchor="middle">What matters most?</text>
    <text x="34" y="118" fill="#94A3B8" font-family="'IBM Plex Sans', Arial, sans-serif" font-size="20">Reliability</text>
    <text x="34" y="170" fill="#94A3B8" font-family="'IBM Plex Sans', Arial, sans-serif" font-size="20">Volunteer load</text>
    <text x="34" y="222" fill="#94A3B8" font-family="'IBM Plex Sans', Arial, sans-serif" font-size="20">Growth path</text>
    <text x="34" y="274" fill="#94A3B8" font-family="'IBM Plex Sans', Arial, sans-serif" font-size="20">Budget fit</text>
    <path d="M202 110h42" stroke="#34D399" stroke-width="10" stroke-linecap="round"/>
    <path d="M194 162h50" stroke="#60A5FA" stroke-width="10" stroke-linecap="round"/>
    <path d="M182 214h62" stroke="#F59E0B" stroke-width="10" stroke-linecap="round"/>
    <path d="M210 266h34" stroke="#34D399" stroke-width="10" stroke-linecap="round"/>
  </g>
</svg>
